<svg width="30" height="40" viewBox="0 0 30 40" fill="none" xmlns="http://www.w3.org/2000/svg">
<path d="M30 21.5385L0 0V40H30L11.9994 21.5385H30Z" fill="#22408B"/>
<path d="M25.7629 20L1.51556 3.37848V38.4616H25.7629L8.44727 20H25.7629Z" fill="#DD2F45"/>
<path d="M9.53377 29.2938L10.4218 28.0384L8.90637 28.1892L9.05792 26.6507L7.81979 27.5523L7.19239 26.1431L6.56499 27.5523L5.32686 26.6507L5.47689 28.1892L3.96143 28.0384L4.84949 29.2938L3.46133 29.9307L4.84949 30.5677L3.96143 31.8231L5.47689 31.6723L5.32686 33.2107L6.56499 32.3092L7.19239 33.7184L7.81979 32.3092L9.05792 33.2107L8.90637 31.6723L10.4218 31.8231L9.53377 30.5677L10.9219 29.9307L9.53377 29.2938ZM7.19087 18.2984L7.19239 18.3015L7.1939 18.2984L7.22118 18.3015C9.44587 18.3015 11.2523 16.5631 11.4402 14.3523C10.9107 15.3527 10.0567 16.1364 9.02306 16.5707L8.75785 16.1954L9.6838 15.7707L8.75785 15.3461L9.3504 14.5077L8.33807 14.6092L8.43961 13.5815L7.61217 14.1831L7.1939 13.2415L6.77564 14.1831L5.9482 13.5815L6.04973 14.6092L5.03741 14.5077L5.62995 15.3461L4.70401 15.7707L5.62995 16.1954L5.37687 16.5538C4.36244 16.1149 3.52544 15.3385 3.00366 14.3523C3.09062 15.4219 3.56843 16.4198 4.34321 17.15C5.11799 17.8801 6.13373 18.2898 7.19087 18.2984Z" fill="white"/>
</svg>
